<?xml version="1.0" standalone="no"?>
<!DOCTYPE svg PUBLIC "-//W3C//DTD SVG 20010904//EN"
 "http://www.w3.org/TR/2001/REC-SVG-20010904/DTD/svg10.dtd">
<svg version="1.0" xmlns="http://www.w3.org/2000/svg"
 width="1280.000000pt" height="1320.000000pt" viewBox="0 0 1280.000000 1320.000000"
 preserveAspectRatio="xMidYMid meet">
<metadata>
Created by potrace 1.16, written by Peter Selinger 2001-2019
</metadata>
<g transform="translate(0.000000,1320.000000) scale(0.100000,-0.100000)"
fill="#000000" stroke="none">
<path d="M5365 12670 c-225 -4 -457 -13 -515 -19 -208 -24 -352 -64 -485 -137
-33 -18 -85 -38 -115 -44 -84 -17 -107 -29 -123 -63 -31 -66 -37 -182 -40
-757 l-2 -575 27 -57 c15 -32 38 -69 52 -83 14 -14 26 -31 26 -38 0 -7 -23
-76 -51 -152 -173 -476 -237 -965 -255 -1950 -11 -579 21 -804 151 -1070 148
-301 443 -561 790 -695 52 -20 71 -33 73 -48 7 -47 -126 -260 -229 -364 l-67
-69 -37 22 c-31 19 -46 21 -108 16 -142 -11 -352 -99 -982 -412 -613 -304
-672 -343 -789 -510 -179 -255 -1382 -2055 -1408 -2107 -29 -57 -33 -74 -36
-168 l-4 -105 -57 -60 c-54 -59 -198 -262 -333 -470 -124 -193 -168 -284 -211
-440 -19 -71 -22 -105 -22 -295 0 -241 14 -335 81 -559 99 -329 338 -832 646
-1358 l60 -103 159 0 c121 0 159 3 159 13 0 6 -82 154 -181 327 -375 654 -616
1203 -659 1499 -14 99 -12 329 4 413 28 146 110 371 241 663 37 83 80 184 95
225 31 84 27 90 58 -75 41 -209 121 -358 281 -515 113 -113 226 -190 408 -281
151 -75 150 -74 40 -124 -56 -26 -102 -35 -268 -54 -47 -5 -98 -15 -112 -22
-49 -22 -49 -94 -1 -120 50 -26 246 -12 358 28 22 7 41 11 43 9 2 -2 18 -57
34 -122 64 -253 370 -1134 568 -1634 l88 -225 101 -3 101 -3 -64 183 c-170
491 -453 1216 -594 1520 -53 115 -115 222 -157 268 -38 41 -41 50 -20 50 8 0
41 29 72 64 l58 65 70 -4 c43 -2 89 -12 116 -24 54 -25 132 -27 169 -5 15 9
43 39 62 67 55 82 96 124 224 225 132 105 221 191 262 254 l27 41 7 -29 c12
-46 77 -545 94 -709 25 -254 35 -504 35 -880 0 -494 -21 -741 -66 -794 -13
-16 -35 -52 -50 -81 -21 -42 -25 -62 -21 -99 4 -36 1 -51 -14 -70 -10 -13 -19
-27 -19 -32 0 -14 44 -11 83 6 20 8 50 15 67 15 17 0 49 9 72 21 70 36 187 25
290 -27 l47 -24 2749 0 c1512 0 2764 3 2782 7 l33 6 -7 71 c-53 562 -69 890
-69 1381 1 594 20 919 88 1455 28 217 31 230 50 230 20 0 411 -135 563 -194
298 -116 673 -281 1042 -456 438 -209 469 -213 619 -74 l61 56 87 -79 c49 -44
131 -115 183 -158 52 -43 96 -81 98 -85 2 -4 -22 -29 -52 -55 -64 -54 -263
-276 -566 -630 -358 -418 -514 -589 -760 -836 -250 -250 -412 -392 -615 -535
-69 -49 -125 -92 -125 -96 0 -4 74 -8 165 -8 l165 0 148 124 c413 343 752 702
1168 1236 255 327 484 647 513 719 10 23 18 30 30 25 62 -26 111 2 111 63 0
62 -83 134 -400 348 -96 65 -179 122 -184 126 -17 15 190 311 356 511 53 64
141 163 195 219 115 120 362 349 377 349 5 0 81 -73 168 -162 l158 -163 0 92
0 92 -93 73 c-51 40 -105 82 -121 94 l-28 20 21 35 c44 72 42 74 -259 330
-107 91 -629 534 -1160 985 -1232 1047 -1311 1112 -1401 1161 -95 52 -175 81
-406 143 -495 135 -1100 270 -1403 315 -299 44 -462 54 -527 31 -36 -12 -46
-12 -109 8 -116 37 -192 84 -285 176 -85 84 -154 179 -200 274 -23 47 -24 48
-4 59 70 38 242 247 345 417 84 139 189 375 205 463 6 30 11 37 24 32 88 -34
231 -29 307 11 65 35 110 72 153 130 88 115 120 211 128 384 8 200 -32 337
-133 448 l-45 51 -9 168 c-15 258 -30 1366 -30 2184 0 826 3 791 -73 875 -35
38 -51 47 -92 55 -27 5 -82 22 -120 38 -115 48 -313 82 -685 117 -203 18 -853
25 -1435 14z m1419 -1716 c14 -36 28 -224 23 -299 -6 -88 -27 -158 -81 -282
-35 -78 -36 -83 -22 -116 25 -60 107 -115 242 -162 16 -5 89 -194 120 -312
l26 -97 -16 -101 c-46 -283 -31 -389 63 -452 26 -17 48 -23 92 -23 52 0 72 7
166 55 l106 55 64 -30 c120 -56 214 -176 242 -308 15 -70 14 -123 -4 -206 -30
-141 -103 -254 -192 -297 -44 -21 -49 -21 -142 -9 -129 17 -145 14 -149 -28
-2 -19 2 -48 8 -65 10 -30 7 -38 -77 -162 -139 -205 -250 -347 -412 -525 -188
-206 -184 -194 -118 -385 46 -131 60 -165 109 -244 95 -157 224 -282 362 -351
68 -35 87 -40 147 -40 38 0 69 -3 69 -6 0 -19 -184 -326 -236 -395 -62 -81
-188 -196 -289 -263 -219 -146 -486 -238 -810 -281 -140 -18 -745 -22 -834 -5
-288 55 -400 180 -547 613 l-57 169 34 26 c148 111 273 308 310 490 12 56 16
63 34 58 115 -29 237 -39 465 -39 330 -1 449 20 494 85 23 33 20 55 -11 75
-23 15 -44 17 -138 13 -257 -11 -528 -5 -615 13 -299 63 -565 202 -760 397
-186 186 -281 376 -336 675 -17 90 -19 154 -18 615 0 520 8 711 45 1125 27
308 55 542 89 740 42 243 33 224 115 245 64 16 163 18 1105 25 569 4 1073 10
1120 14 156 14 207 13 214 -5z m-2619 -6883 l210 -6 -110 -45 c-105 -43 -114
-45 -205 -44 -83 1 -112 6 -230 44 -74 23 -173 48 -220 55 -78 11 -68 11 130
7 118 -2 310 -7 425 -11z m885 -26 c232 -8 223 -6 215 -58 -12 -76 -13 -77
-58 -77 -74 0 -169 30 -267 81 -104 55 -131 75 -90 66 14 -3 104 -8 200 -12z
m-1280 -105 c144 -56 212 -72 302 -72 79 0 106 8 393 113 67 25 91 29 145 25
57 -3 83 -13 210 -79 172 -89 248 -116 353 -124 l78 -6 -3 -65 -3 -66 -83 -43
c-68 -36 -92 -43 -138 -43 -73 0 -102 16 -209 120 -104 100 -136 115 -234 108
-77 -6 -135 -31 -268 -116 -103 -66 -163 -87 -225 -79 -24 3 -112 40 -196 81
l-153 76 -85 0 c-59 0 -95 -5 -116 -16 l-31 -16 6 124 c4 69 9 132 12 141 6
14 13 13 74 -3 37 -11 114 -37 171 -60z m977 -340 c127 -122 153 -135 273
-135 86 0 101 3 164 32 l68 33 -4 -80 c-2 -58 -7 -84 -18 -91 -8 -5 -52 -21
-98 -35 -120 -38 -193 -32 -299 27 -179 99 -213 113 -267 113 -63 0 -109 -24
-196 -100 -127 -110 -200 -120 -390 -53 -63 22 -153 54 -200 70 -86 30 -166
39 -226 25 l-31 -7 -7 62 c-3 34 -6 89 -6 121 0 58 1 59 35 74 19 7 60 14 92
14 53 1 72 -6 220 -81 154 -79 165 -82 241 -87 102 -6 140 7 284 95 123 75
199 106 242 98 18 -3 62 -37 123 -95z m-22 -330 c66 -38 136 -73 155 -77 65
-15 241 -8 297 11 29 10 57 15 63 11 5 -3 10 -44 10 -91 0 -83 -1 -85 -27 -96
-16 -7 -77 -12 -144 -13 l-115 0 -124 59 c-186 89 -201 87 -428 -47 -159 -94
-249 -100 -437 -27 -237 91 -239 92 -341 88 l-93 -3 -5 50 c-3 28 -7 80 -10
118 l-5 67 58 0 c68 0 81 -4 276 -86 195 -82 307 -101 422 -71 47 13 108 52
221 142 63 51 86 47 227 -35z m50 -301 c39 -20 95 -45 125 -53 72 -21 210 -30
283 -18 l57 9 0 -92 c0 -124 -3 -128 -111 -124 -88 4 -81 2 -258 94 -59 30
-86 38 -130 39 -70 1 -100 -11 -227 -90 -211 -131 -287 -134 -618 -23 -83 27
-188 55 -233 61 -92 12 -85 5 -98 113 -3 28 -8 64 -11 82 -4 29 -3 31 33 37
53 9 128 -13 285 -83 171 -77 240 -95 338 -88 95 6 167 32 273 96 115 69 167
91 197 84 14 -3 57 -23 95 -44z m85 -323 c94 -59 145 -74 276 -82 l105 -7 -3
-40 c-3 -40 -4 -41 -72 -69 -38 -15 -78 -28 -89 -28 -12 0 -66 18 -121 39
-183 71 -235 66 -460 -41 -141 -67 -156 -72 -231 -76 -76 -4 -88 -1 -225 48
-80 28 -183 60 -230 71 -110 26 -163 57 -183 107 -23 56 -31 109 -18 116 15 9
79 -11 265 -84 88 -34 196 -69 240 -77 137 -26 279 -4 390 61 23 13 77 45 121
70 101 60 129 59 235 -8z m18 -283 l44 -19 -275 -118 -275 -118 -43 22 c-41
21 -179 101 -179 104 0 0 51 1 113 1 l112 0 155 71 c85 39 162 74 170 77 27
12 134 -1 178 -20z"/>
<path d="M4565 9940 c-163 -43 -268 -93 -348 -169 -52 -49 -77 -88 -77 -121 0
-34 24 -33 117 5 138 58 250 94 342 111 112 21 127 28 146 65 20 38 13 72 -20
105 -29 29 -63 30 -160 4z"/>
<path d="M5550 9907 c-49 -17 -79 -72 -61 -114 17 -42 44 -52 181 -63 184 -16
278 -48 446 -149 60 -36 104 -51 104 -36 0 3 -9 22 -19 43 -66 129 -260 262
-455 312 -89 22 -145 24 -196 7z"/>
<path d="M4388 9474 c-41 -22 -60 -66 -60 -143 0 -73 30 -167 61 -195 10 -9
35 -19 54 -23 32 -5 41 -1 71 29 36 36 66 115 66 175 0 48 -22 94 -64 137 -41
40 -80 47 -128 20z"/>
<path d="M5691 9466 c-22 -23 -24 -34 -23 -115 1 -141 44 -254 104 -275 38
-13 83 8 102 49 32 67 13 303 -28 343 -9 9 -39 17 -73 20 -52 3 -60 1 -82 -22z"/>
<path d="M4795 8968 c-85 -31 -147 -94 -171 -174 -18 -61 -18 -102 2 -161 65
-191 243 -244 459 -138 123 61 159 123 105 180 -34 36 -66 31 -145 -21 -39
-26 -85 -53 -104 -61 -41 -18 -111 -19 -141 -3 -29 16 -60 69 -60 105 0 51 44
128 99 175 28 23 53 51 57 62 13 42 -35 59 -101 36z"/>
<path d="M7451 8934 c-73 -19 -151 -65 -218 -128 -51 -47 -56 -56 -60 -103 -5
-48 -3 -54 26 -84 52 -51 75 -40 216 105 120 123 174 161 198 137 17 -17 37
-13 37 8 0 73 -76 98 -199 65z"/>
<path d="M4632 8128 c-19 -19 -14 -77 10 -126 29 -61 112 -141 180 -174 52
-26 66 -28 176 -28 117 0 121 1 190 35 40 21 94 59 126 90 50 49 56 60 56 96
0 51 -13 75 -50 94 -47 24 -67 18 -129 -39 -87 -80 -131 -100 -216 -100 -86
-1 -122 16 -224 101 -77 64 -97 73 -119 51z"/>
<path d="M12714 963 c-102 -126 -535 -560 -684 -687 -63 -54 -162 -135 -220
-179 -58 -44 -109 -84 -114 -89 -6 -4 51 -8 125 -8 l135 0 115 96 c191 160
432 388 585 552 l144 155 0 128 c0 71 -1 129 -3 129 -2 0 -39 -44 -83 -97z"/>
</g>
</svg>
